<svg width="50" height="50" fill="none" xmlns="http://www.w3.org/2000/svg"><path fill="#012C12" fill-opacity=".75" d="m10.858.505 38.637 10.353-10.353 38.637L.505 39.142z"/><path stroke="#DFD21D" stroke-opacity=".9" d="M11.211 1.117 48.882 11.21 38.788 48.882 1.118 38.788z"/><path d="M12.907 26h-1.344l-1.717-2.377a1.93 1.93 0 0 1-.143-.263h-.018V26H8.64v-5.39h1.044v2.548h.018c.03-.068.078-.159.146-.27l1.641-2.279h1.256l-2.007 2.575L12.907 26Zm.575 0v-5.39h1.835c.554 0 .987.11 1.3.333.312.22.469.527.469.922 0 .289-.092.544-.275.766-.183.22-.43.377-.74.472v.011c.381.05.684.19.909.425.224.234.336.525.336.872 0 .483-.173.869-.52 1.157-.346.288-.81.432-1.391.432h-1.923Zm1.044-4.589v1.414h.568c.28 0 .5-.066.659-.198.158-.134.238-.322.238-.564 0-.434-.31-.652-.93-.652h-.535Zm0 2.22v1.567h.718c.307 0 .546-.07.717-.212.171-.142.257-.338.257-.59 0-.51-.337-.765-1.011-.765h-.681ZM22.836 26h-1.14l-.436-1.29h-2.025L18.811 26h-1.14l1.997-5.39h1.204L22.835 26ZM21 23.883l-.66-1.952a2.75 2.75 0 0 1-.084-.446h-.026c-.02.163-.05.31-.091.44l-.663 1.958H21Zm7.412 3.578h-.927V26h-3.545v1.461h-.919v-2.333h.476c.728-1.32 1.132-2.827 1.212-4.519h2.952v4.52h.75v2.332Zm-1.799-2.333v-3.632h-1.05c-.074 1.174-.4 2.385-.982 3.632h2.032Zm3.761-1.04V26h-1.043v-5.39h1.78c1.313 0 1.97.562 1.97 1.688 0 .544-.2.982-.597 1.314-.396.332-.894.491-1.494.476h-.616Zm0-2.647v1.83h.532c.72 0 1.08-.31 1.08-.933 0-.598-.353-.897-1.058-.897h-.553ZM38.517 26h-1.139l-.435-1.29h-2.026L34.492 26h-1.14l1.997-5.39h1.205L38.516 26Zm-1.834-2.117-.66-1.952a2.736 2.736 0 0 1-.084-.446h-.025c-.02.163-.05.31-.092.44l-.663 1.958h1.524Zm6.156-2.406h-1.542V26h-1.047v-4.523H38.71v-.868h4.128v.868ZM27.248 31.62c.08 0 .12.068.12.204a4.822 4.822 0 0 1-.636.852c-.24.248-.504.372-.792.372a.944.944 0 0 1-.504-.168c-.168-.112-.252-.32-.252-.624a2.06 2.06 0 0 1 .108-.612c.064-.16.14-.332.228-.516s.232-.436.432-.756a.624.624 0 0 0 .096-.204.395.395 0 0 0 .024-.12c0-.096-.044-.144-.132-.144-.072 0-.18.04-.324.12a3.04 3.04 0 0 0-.516.42c-.2.192-.44.464-.72.816-.272.352-.588.872-.948 1.56-.056.104-.12.16-.192.168a5.154 5.154 0 0 1-.276.024c-.08.008-.156.012-.228.012a.331.331 0 0 0-.18.072c.288-.584.564-1.16.828-1.728.264-.576.536-1.124.816-1.644.16-.288.296-.488.408-.6.112-.12.26-.18.444-.18.064 0 .132.012.204.036a.993.993 0 0 0 .216.024.364.364 0 0 0 .108-.012c-.112.064-.26.224-.444.48a9.695 9.695 0 0 0-.54.864c-.184.328-.348.636-.492.924.152-.184.312-.368.48-.552a5.78 5.78 0 0 1 .552-.528c.192-.168.42-.34.684-.516.272-.184.536-.336.792-.456s.46-.18.612-.18c.056 0 .096.004.12.012l-.132.24c-.088.152-.2.356-.336.612-.128.248-.26.516-.396.804-.136.28-.26.552-.372.816a3.413 3.413 0 0 0-.204.648c-.024.104-.036.2-.036.288 0 .128.024.212.072.252.048.04.1.06.156.06.184 0 .376-.12.576-.36.208-.24.4-.5.576-.78Zm2.315-.516c-.208.352-.408.676-.6.972a3.2 3.2 0 0 1-.6.708c-.2.168-.428.252-.684.252a.848.848 0 0 1-.516-.168c-.152-.12-.228-.292-.228-.516 0-.136.032-.284.096-.444.056-.16.14-.296.252-.408a.532.532 0 0 1 .432-.144.488.488 0 0 1 .3.132 1.446 1.446 0 0 0-.336.48c-.08.184-.12.344-.12.48 0 .08.016.156.048.228.04.064.108.096.204.096.152 0 .308-.084.468-.252.168-.176.34-.4.516-.672.184-.28.364-.568.54-.864.232-.376.46-.724.684-1.044.232-.32.448-.568.648-.744.256-.216.5-.324.732-.324h.048c.32 0 .408.152.264.456l-.42.9c-.072.144-.16.324-.264.54a25.79 25.79 0 0 0-.288.648c-.088.216-.16.424-.216.624a1.3 1.3 0 0 0-.048.468c.024.12.104.18.24.18.2 0 .396-.104.588-.312.2-.208.388-.464.564-.768.176-.312.332-.62.468-.924a.16.16 0 0 1 .096.036c.032.016.048.04.048.072-.144.36-.312.708-.504 1.044-.184.336-.4.612-.648.828-.24.216-.52.324-.84.324-.312 0-.508-.108-.588-.324-.072-.224-.064-.516.024-.876.096-.36.244-.752.444-1.176.2-.432.42-.852.66-1.26.088-.144.112-.216.072-.216-.032 0-.088.032-.168.096-.072.056-.14.116-.204.18a3.799 3.799 0 0 0-.492.6c-.176.256-.4.62-.672 1.092Zm3.178.168c-.032.072-.084.184-.156.336l-.216.48c-.072.168-.14.32-.204.456a4.974 4.974 0 0 1-.12.276c-.048.096-.1.156-.156.18a1.17 1.17 0 0 1-.3.024h-.228a.343.343 0 0 0-.18.06l.42-.84.408-.864c.128-.272.232-.496.312-.672l.24-.48c.08-.152.168-.316.264-.492.168-.312.304-.516.408-.612a.563.563 0 0 1 .396-.156 1.274 1.274 0 0 1 .312.036.66.66 0 0 0 .252.012c-.104.056-.232.188-.384.396a8.708 8.708 0 0 0-.468.72c-.152.264-.292.52-.42.768.152-.152.312-.228.48-.228a.6.6 0 0 1 .312.072c.08.04.152.06.216.06h.012c.128-.36.308-.692.54-.996a3.16 3.16 0 0 1 .756-.744c.28-.184.56-.276.84-.276.304 0 .536.112.696.336.16.224.24.504.24.84 0 .24-.04.496-.12.768-.08.272-.188.532-.324.78.112.104.26.156.444.156a.86.86 0 0 0 .576-.216c.168-.144.328-.4.48-.768.096 0 .144.036.144.108-.128.32-.296.58-.504.78-.2.192-.46.284-.78.276a.726.726 0 0 1-.456-.156c-.224.368-.492.68-.804.936-.304.248-.62.372-.948.372-.328 0-.572-.116-.732-.348a1.581 1.581 0 0 1-.228-.864c0-.216.028-.44.084-.672a.379.379 0 0 1-.204.06.478.478 0 0 1-.3-.084.399.399 0 0 0-.252-.084.387.387 0 0 0-.168.048.575.575 0 0 0-.18.216Zm3.924-.924a2.296 2.296 0 0 0 .048-.468.94.94 0 0 0-.12-.504.365.365 0 0 0-.348-.204c-.248 0-.508.148-.78.444-.264.296-.496.68-.696 1.152a4.934 4.934 0 0 0-.24.708 2.402 2.402 0 0 0-.084.6c0 .2.036.36.108.48.072.12.184.18.336.18.184 0 .368-.076.552-.228.184-.16.352-.34.504-.54.152-.2.26-.372.324-.516-.128-.232-.204-.404-.228-.516a2.234 2.234 0 0 1-.024-.264c0-.152.04-.268.12-.348.08-.08.16-.12.24-.12.112 0 .208.048.288.144Zm2.43 2.7c-.44 0-.767-.116-.983-.348-.209-.232-.313-.544-.313-.936 0-.184.037-.396.108-.636.073-.24.169-.484.289-.732.12-.248.252-.468.396-.66a2.7 2.7 0 0 1 .767-.72c.28-.176.564-.264.852-.264.305 0 .52.068.648.204.136.128.204.28.204.456 0 .168-.04.32-.12.456a1.17 1.17 0 0 1-.276.312c-.096.08-.18.12-.252.12a.23.23 0 0 1-.167-.072c.064-.08.132-.176.204-.288.072-.112.123-.22.156-.324a.906.906 0 0 0 .048-.288c0-.208-.096-.312-.288-.312-.233 0-.46.096-.684.288-.216.192-.416.44-.6.744-.177.296-.32.612-.433.948a3.032 3.032 0 0 0-.156.912c0 .256.053.468.157.636.111.168.291.252.54.252.328 0 .615-.104.864-.312.248-.216.468-.484.66-.804.191-.328.36-.66.503-.996.032 0 .064.008.096.024.032.008.049.036.049.084-.16.4-.348.772-.564 1.116-.216.344-.464.62-.744.828a1.535 1.535 0 0 1-.96.312Z" fill="#fff"/></svg>