<svg aria-hidden="true" style="position: absolute; width: 0; height: 0; overflow: hidden;" version="1.1" xmlns="http://www.w3.org/2000/svg" xmlns:xlink="http://www.w3.org/1999/xlink">
<defs>
<symbol id="icon-logo-kvadrat" viewBox="0 0 32 32">
<path fill="#355a35" style="fill: var(--color1, #355a35)" d="M8.197 0.279l21.317 5.712-5.712 21.317-21.317-5.712 5.712-21.317z"></path>
<path fill="none" stroke="#dfd21d" style="stroke: var(--color2, #dfd21d)" stroke-linejoin="miter" stroke-linecap="butt" stroke-miterlimit="4" stroke-width="0.5517" d="M8.393 0.617l20.784 5.569-5.569 20.784-20.784-5.569 5.569-20.784z"></path>
<path fill="#fff" style="fill: var(--color3, #fff)" d="M9.328 14.345h-0.742l-0.948-1.311c-0.022-0.031-0.048-0.079-0.079-0.146h-0.010v1.457h-0.576v-2.974h0.576v1.406h0.010c0.016-0.038 0.043-0.088 0.081-0.15l0.905-1.257h0.693l-1.107 1.42 1.196 1.554zM9.645 14.345v-2.974h1.012c0.306 0 0.545 0.061 0.717 0.184 0.172 0.121 0.259 0.291 0.259 0.509 0 0.159-0.051 0.3-0.152 0.422-0.101 0.121-0.237 0.208-0.408 0.261v0.006c0.21 0.027 0.377 0.105 0.501 0.234s0.186 0.29 0.186 0.481c0 0.267-0.096 0.48-0.287 0.639s-0.447 0.238-0.768 0.238h-1.061zM10.221 11.813v0.78h0.313c0.155 0 0.276-0.036 0.364-0.109 0.088-0.074 0.131-0.178 0.131-0.311 0-0.24-0.171-0.36-0.513-0.36h-0.295zM10.221 13.038v0.865h0.396c0.17 0 0.302-0.039 0.396-0.117s0.141-0.187 0.141-0.325c0-0.282-0.186-0.422-0.558-0.422h-0.376zM14.806 14.345h-0.628l-0.24-0.711h-1.117l-0.234 0.711h-0.628l1.101-2.974h0.665l1.083 2.974zM13.793 13.177l-0.364-1.077c-0.015-0.043-0.030-0.125-0.046-0.246h-0.014c-0.011 0.090-0.028 0.171-0.050 0.242l-0.366 1.081h0.841zM17.883 15.151h-0.511v-0.806h-1.956v0.806h-0.507v-1.287h0.263c0.401-0.729 0.624-1.56 0.669-2.493h1.629v2.493h0.414v1.287zM16.891 13.864v-2.004h-0.58c-0.040 0.648-0.221 1.316-0.542 2.004h1.121zM18.966 13.29v1.055h-0.576v-2.974h0.982c0.725 0 1.087 0.31 1.087 0.931 0 0.3-0.11 0.542-0.329 0.725-0.218 0.183-0.493 0.271-0.824 0.263h-0.339zM18.966 11.829v1.010h0.293c0.397 0 0.596-0.172 0.596-0.515 0-0.33-0.195-0.495-0.584-0.495h-0.305zM23.457 14.345h-0.628l-0.24-0.711h-1.117l-0.234 0.711h-0.628l1.101-2.974h0.665l1.083 2.974zM22.445 13.177l-0.364-1.077c-0.015-0.043-0.030-0.125-0.047-0.246h-0.014c-0.011 0.090-0.028 0.171-0.051 0.242l-0.366 1.081h0.84zM25.841 11.85h-0.851v2.495h-0.578v-2.495h-0.849v-0.479h2.277v0.479z"></path>
<path fill="#fff" style="fill: var(--color3, #fff)" d="M17.24 17.446c0.044 0 0.066 0.038 0.066 0.113-0.102 0.172-0.218 0.329-0.351 0.47-0.132 0.137-0.278 0.205-0.437 0.205-0.088 0-0.181-0.031-0.278-0.093-0.093-0.062-0.139-0.177-0.139-0.344 0-0.049 0.004-0.099 0.013-0.152 0.009-0.057 0.024-0.119 0.046-0.185 0.035-0.088 0.077-0.183 0.126-0.285s0.128-0.241 0.238-0.417c0.031-0.049 0.049-0.086 0.053-0.113 0.009-0.026 0.013-0.049 0.013-0.066 0-0.053-0.024-0.079-0.073-0.079-0.040 0-0.099 0.022-0.179 0.066-0.075 0.044-0.17 0.121-0.285 0.232-0.11 0.106-0.243 0.256-0.397 0.45-0.15 0.194-0.324 0.481-0.523 0.861-0.031 0.057-0.066 0.088-0.106 0.093-0.035 0.004-0.086 0.009-0.152 0.013-0.044 0.004-0.086 0.007-0.126 0.007-0.040 0.004-0.073 0.018-0.099 0.040 0.159-0.322 0.311-0.64 0.457-0.953 0.146-0.318 0.296-0.62 0.45-0.907 0.088-0.159 0.163-0.269 0.225-0.331 0.062-0.066 0.143-0.099 0.245-0.099 0.035 0 0.073 0.007 0.113 0.020 0.040 0.009 0.079 0.013 0.119 0.013 0.026 0 0.046-0.002 0.060-0.007-0.062 0.035-0.143 0.124-0.245 0.265-0.097 0.137-0.196 0.296-0.298 0.477s-0.192 0.351-0.271 0.51c0.084-0.102 0.172-0.203 0.265-0.305s0.194-0.199 0.305-0.291c0.106-0.093 0.232-0.188 0.377-0.285 0.15-0.102 0.296-0.185 0.437-0.252s0.254-0.099 0.338-0.099c0.031 0 0.053 0.002 0.066 0.007 0 0-0.024 0.044-0.073 0.132-0.049 0.084-0.11 0.196-0.185 0.338-0.071 0.137-0.143 0.285-0.218 0.444-0.075 0.154-0.143 0.305-0.205 0.45-0.057 0.141-0.095 0.26-0.113 0.358-0.013 0.057-0.020 0.11-0.020 0.159 0 0.071 0.013 0.117 0.040 0.139s0.055 0.033 0.086 0.033c0.102 0 0.207-0.066 0.318-0.199 0.115-0.132 0.221-0.276 0.318-0.43zM18.517 17.161c-0.115 0.194-0.225 0.373-0.331 0.536s-0.216 0.294-0.331 0.391c-0.11 0.093-0.236 0.139-0.377 0.139-0.106 0-0.201-0.031-0.285-0.093-0.084-0.066-0.126-0.161-0.126-0.285 0-0.075 0.018-0.157 0.053-0.245 0.031-0.088 0.077-0.163 0.139-0.225 0.066-0.062 0.146-0.088 0.238-0.079 0.062 0.004 0.117 0.029 0.166 0.073-0.079 0.075-0.141 0.163-0.185 0.265s-0.066 0.19-0.066 0.265c0 0.044 0.009 0.086 0.026 0.126 0.022 0.035 0.060 0.053 0.113 0.053 0.084 0 0.17-0.046 0.258-0.139 0.093-0.097 0.188-0.221 0.285-0.371 0.102-0.154 0.201-0.313 0.298-0.477 0.128-0.207 0.254-0.399 0.377-0.576 0.128-0.177 0.247-0.313 0.358-0.41 0.141-0.119 0.276-0.179 0.404-0.179h0.026c0.177 0 0.225 0.084 0.146 0.252l-0.232 0.497c-0.040 0.079-0.088 0.179-0.146 0.298-0.053 0.115-0.106 0.234-0.159 0.358-0.049 0.119-0.088 0.234-0.119 0.344-0.026 0.106-0.035 0.192-0.026 0.258 0.013 0.066 0.057 0.099 0.132 0.099 0.11 0 0.218-0.057 0.324-0.172 0.11-0.115 0.214-0.256 0.311-0.424 0.097-0.172 0.183-0.342 0.258-0.51 0.018 0 0.035 0.007 0.053 0.020 0.018 0.009 0.026 0.022 0.026 0.040-0.079 0.199-0.172 0.391-0.278 0.576-0.102 0.185-0.221 0.338-0.358 0.457-0.132 0.119-0.287 0.179-0.463 0.179-0.172 0-0.28-0.060-0.324-0.179-0.040-0.124-0.035-0.285 0.013-0.483 0.053-0.199 0.135-0.415 0.245-0.649 0.11-0.238 0.232-0.47 0.364-0.695 0.049-0.079 0.062-0.119 0.040-0.119-0.018 0-0.049 0.018-0.093 0.053-0.040 0.031-0.077 0.064-0.113 0.099-0.084 0.079-0.174 0.19-0.271 0.331s-0.221 0.342-0.371 0.602zM20.271 17.254c-0.018 0.040-0.046 0.102-0.086 0.185-0.035 0.079-0.075 0.168-0.119 0.265-0.040 0.093-0.077 0.177-0.113 0.252-0.031 0.075-0.053 0.126-0.066 0.152-0.026 0.053-0.055 0.086-0.086 0.099-0.026 0.009-0.082 0.013-0.166 0.013h-0.126c-0.031 0-0.064 0.011-0.099 0.033 0.071-0.141 0.148-0.296 0.232-0.463 0.079-0.168 0.154-0.327 0.225-0.477s0.128-0.274 0.172-0.371c0.049-0.097 0.093-0.185 0.132-0.265 0.044-0.084 0.093-0.174 0.146-0.271 0.093-0.172 0.168-0.285 0.225-0.338 0.062-0.057 0.135-0.086 0.218-0.086 0.035 0 0.068 0.002 0.099 0.007s0.055 0.009 0.073 0.013c0.009 0 0.022 0.002 0.040 0.007 0.022 0.004 0.055 0.004 0.099 0-0.057 0.031-0.128 0.104-0.212 0.218s-0.17 0.247-0.258 0.397c-0.084 0.146-0.161 0.287-0.232 0.424 0.084-0.084 0.172-0.126 0.265-0.126 0.071 0 0.128 0.013 0.172 0.040 0.044 0.022 0.084 0.033 0.119 0.033h0.007c0.071-0.199 0.17-0.382 0.298-0.55 0.128-0.172 0.267-0.309 0.417-0.41 0.154-0.102 0.309-0.152 0.463-0.152 0.168 0 0.296 0.062 0.384 0.185s0.132 0.278 0.132 0.463c0 0.132-0.022 0.274-0.066 0.424s-0.104 0.294-0.179 0.43c0.062 0.057 0.143 0.086 0.245 0.086 0.119 0 0.225-0.040 0.318-0.119s0.181-0.221 0.265-0.424c0.053 0 0.079 0.020 0.079 0.060-0.071 0.177-0.163 0.32-0.278 0.43-0.11 0.106-0.254 0.157-0.43 0.152-0.106-0.004-0.19-0.033-0.252-0.086-0.124 0.203-0.271 0.375-0.444 0.516-0.168 0.137-0.342 0.205-0.523 0.205s-0.316-0.064-0.404-0.192c-0.084-0.132-0.126-0.291-0.126-0.477 0-0.119 0.015-0.243 0.046-0.371-0.035 0.022-0.073 0.033-0.113 0.033-0.071 0-0.126-0.015-0.166-0.046s-0.086-0.046-0.139-0.046c-0.026 0-0.057 0.009-0.093 0.026-0.031 0.018-0.064 0.057-0.099 0.119zM22.436 16.744c0.009-0.049 0.015-0.093 0.020-0.132 0.004-0.044 0.007-0.086 0.007-0.126 0-0.115-0.022-0.207-0.066-0.278-0.040-0.075-0.104-0.113-0.192-0.113-0.137 0-0.28 0.082-0.43 0.245-0.146 0.163-0.274 0.375-0.384 0.636-0.057 0.137-0.102 0.267-0.132 0.391-0.031 0.119-0.046 0.23-0.046 0.331 0 0.11 0.020 0.199 0.060 0.265s0.102 0.099 0.185 0.099c0.102 0 0.203-0.042 0.305-0.126 0.102-0.088 0.194-0.188 0.278-0.298s0.143-0.205 0.179-0.285c-0.071-0.128-0.113-0.223-0.126-0.285-0.009-0.066-0.013-0.115-0.013-0.146 0-0.084 0.022-0.148 0.066-0.192s0.088-0.066 0.132-0.066c0.062 0 0.115 0.026 0.159 0.079zM23.777 18.233c-0.243 0-0.424-0.064-0.543-0.192-0.115-0.128-0.172-0.3-0.172-0.516 0-0.102 0.020-0.218 0.060-0.351s0.093-0.267 0.159-0.404c0.066-0.137 0.139-0.258 0.218-0.364 0.128-0.172 0.269-0.305 0.424-0.397 0.154-0.097 0.311-0.146 0.47-0.146 0.168 0 0.287 0.038 0.358 0.113 0.075 0.071 0.113 0.154 0.113 0.252 0 0.093-0.022 0.177-0.066 0.252-0.044 0.071-0.095 0.128-0.152 0.172-0.053 0.044-0.099 0.066-0.139 0.066-0.035 0-0.066-0.013-0.093-0.040 0.035-0.044 0.073-0.097 0.113-0.159s0.068-0.121 0.086-0.179c0.018-0.053 0.026-0.106 0.026-0.159 0-0.115-0.053-0.172-0.159-0.172-0.128 0-0.254 0.053-0.377 0.159-0.119 0.106-0.23 0.243-0.331 0.41-0.097 0.163-0.177 0.338-0.238 0.523-0.057 0.181-0.086 0.349-0.086 0.503 0 0.141 0.029 0.258 0.086 0.351 0.062 0.093 0.161 0.139 0.298 0.139 0.181 0 0.34-0.057 0.477-0.172 0.137-0.119 0.258-0.267 0.364-0.444 0.106-0.181 0.199-0.364 0.278-0.55 0.018 0 0.035 0.004 0.053 0.013 0.018 0.004 0.026 0.020 0.026 0.046-0.088 0.221-0.192 0.426-0.311 0.616s-0.256 0.342-0.41 0.457c-0.15 0.115-0.327 0.172-0.53 0.172z"></path>
</symbol>
<symbol id="icon-menu" viewBox="0 0 24 24">
<path d="M3 13h18c0.552 0 1-0.448 1-1s-0.448-1-1-1h-18c-0.552 0-1 0.448-1 1s0.448 1 1 1zM3 7h18c0.552 0 1-0.448 1-1s-0.448-1-1-1h-18c-0.552 0-1 0.448-1 1s0.448 1 1 1zM3 19h18c0.552 0 1-0.448 1-1s-0.448-1-1-1h-18c-0.552 0-1 0.448-1 1s0.448 1 1 1z"></path>
</symbol>
</defs>
</svg>
