<svg aria-hidden="true" style="position:absolute;width:0;height:0;overflow:hidden" xmlns="http://www.w3.org/2000/svg"><defs><symbol id="icon-logo-kvadrat" viewBox="0 0 32 32"><path fill="#355a35" style="fill:var(--color1, #355a35)" d="m8.197.279 21.317 5.712-5.712 21.317-21.317-5.712L8.197.279z"/><path fill="none" stroke="#dfd21d" style="stroke:var(--color2, #dfd21d)" stroke-width=".552" d="m8.393.617 20.784 5.569-5.569 20.784-20.784-5.569L8.393.617z"/><path fill="#fff" style="fill:var(--color3, #fff)" d="M9.328 14.345h-.742l-.948-1.311a.972.972 0 0 1-.079-.146h-.01v1.457h-.576v-2.974h.576v1.406h.01c.016-.038.043-.088.081-.15l.905-1.257h.693l-1.107 1.42 1.196 1.554zm.317 0v-2.974h1.012c.306 0 .545.061.717.184a.588.588 0 0 1 .259.509c0 .159-.051.3-.152.422a.84.84 0 0 1-.408.261v.006c.21.027.377.105.501.234s.186.29.186.481c0 .267-.096.48-.287.639s-.447.238-.768.238H9.644zm.576-2.532v.78h.313a.553.553 0 0 0 .364-.109.384.384 0 0 0 .131-.311c0-.24-.171-.36-.513-.36h-.295zm0 1.225v.865h.396c.17 0 .302-.039.396-.117s.141-.187.141-.325c0-.282-.186-.422-.558-.422h-.376zm4.585 1.307h-.628l-.24-.711h-1.117l-.234.711h-.628l1.101-2.974h.665l1.083 2.974zm-1.013-1.168-.364-1.077a1.483 1.483 0 0 1-.046-.246h-.014c-.011.09-.028.171-.05.242l-.366 1.081h.841zm4.09 1.974h-.511v-.806h-1.956v.806h-.507v-1.287h.263c.401-.729.624-1.56.669-2.493h1.629v2.493h.414v1.287zm-.992-1.287V11.86h-.58c-.04.648-.221 1.316-.542 2.004h1.121zm2.075-.574v1.055h-.576v-2.974h.982c.725 0 1.087.31 1.087.931 0 .3-.11.542-.329.725-.218.183-.493.271-.824.263h-.339zm0-1.461v1.01h.293c.397 0 .596-.172.596-.515 0-.33-.195-.495-.584-.495h-.305zm4.491 2.516h-.628l-.24-.711h-1.117l-.234.711h-.628l1.101-2.974h.665l1.083 2.974zm-1.012-1.168-.364-1.077a1.565 1.565 0 0 1-.047-.246h-.014c-.011.09-.028.171-.051.242l-.366 1.081h.84zm3.396-1.327h-.851v2.495h-.578V11.85h-.849v-.479h2.277v.479zM17.24 17.446c.044 0 .066.038.066.113a2.652 2.652 0 0 1-.351.47.597.597 0 0 1-.437.205.52.52 0 0 1-.278-.093c-.093-.062-.139-.177-.139-.344a1.16 1.16 0 0 1 .059-.337c.035-.088.077-.183.126-.285s.128-.241.238-.417a.335.335 0 0 0 .053-.113.211.211 0 0 0 .013-.066c0-.053-.024-.079-.073-.079a.429.429 0 0 0-.179.066c-.075.044-.17.121-.285.232-.11.106-.243.256-.397.45a6.08 6.08 0 0 0-.523.861c-.031.057-.066.088-.106.093a2.87 2.87 0 0 1-.278.02.177.177 0 0 0-.099.04c.159-.322.311-.64.457-.953.146-.318.296-.62.45-.907.088-.159.163-.269.225-.331a.32.32 0 0 1 .245-.099.37.37 0 0 1 .113.02c.04.009.079.013.119.013a.189.189 0 0 0 .06-.007c-.062.035-.143.124-.245.265-.097.137-.196.296-.298.477s-.192.351-.271.51c.084-.102.172-.203.265-.305s.194-.199.305-.291c.106-.093.232-.188.377-.285.15-.102.296-.185.437-.252s.254-.099.338-.099c.031 0 .053.002.066.007l-.073.132a9.671 9.671 0 0 0-.403.782c-.075.154-.143.305-.205.45a1.92 1.92 0 0 0-.113.358.72.72 0 0 0-.02.159c0 .071.013.117.04.139s.055.033.086.033c.102 0 .207-.066.318-.199.115-.132.221-.276.318-.43zm1.277-.285c-.115.194-.225.373-.331.536s-.216.294-.331.391a.568.568 0 0 1-.377.139.468.468 0 0 1-.285-.093.341.341 0 0 1-.126-.285.67.67 0 0 1 .053-.245.59.59 0 0 1 .139-.225.292.292 0 0 1 .238-.079.27.27 0 0 1 .166.073c-.079.075-.141.163-.185.265s-.066.19-.066.265a.32.32 0 0 0 .026.126c.022.035.06.053.113.053.084 0 .17-.046.258-.139.093-.097.188-.221.285-.371.102-.154.201-.313.298-.477.128-.207.254-.399.377-.576.128-.177.247-.313.358-.41.141-.119.276-.179.404-.179h.026c.177 0 .225.084.146.252l-.232.497c-.04.079-.088.179-.146.298-.053.115-.106.234-.159.358a3.14 3.14 0 0 0-.119.344.722.722 0 0 0-.026.258c.013.066.057.099.132.099.11 0 .218-.057.324-.172.11-.115.214-.256.311-.424a6.11 6.11 0 0 0 .258-.51.09.09 0 0 1 .053.02c.018.009.026.022.026.04a4.49 4.49 0 0 1-.278.576 1.656 1.656 0 0 1-.358.457.671.671 0 0 1-.463.179c-.172 0-.28-.06-.324-.179-.04-.124-.035-.285.013-.483a3.91 3.91 0 0 1 .245-.649c.11-.238.232-.47.364-.695.049-.079.062-.119.04-.119-.018 0-.049.018-.093.053-.04.031-.077.064-.113.099-.084.079-.174.19-.271.331s-.221.342-.371.602zm1.754.093a7.37 7.37 0 0 1-.086.185l-.119.265c-.04.093-.077.177-.113.252a2.877 2.877 0 0 1-.066.152c-.026.053-.055.086-.086.099a.642.642 0 0 1-.166.013h-.126a.188.188 0 0 0-.099.033l.232-.463.225-.477c.071-.15.128-.274.172-.371l.132-.265c.044-.084.093-.174.146-.271.093-.172.168-.285.225-.338a.313.313 0 0 1 .218-.086.624.624 0 0 1 .172.02.399.399 0 0 0 .139.007c-.057.031-.128.104-.212.218s-.17.247-.258.397c-.084.146-.161.287-.232.424a.373.373 0 0 1 .265-.126c.071 0 .128.013.172.04a.272.272 0 0 0 .119.033h.007c.071-.199.17-.382.298-.55.128-.172.267-.309.417-.41a.833.833 0 0 1 .463-.152c.168 0 .296.062.384.185s.132.278.132.463c0 .132-.022.274-.066.424s-.104.294-.179.43a.347.347 0 0 0 .245.086c.119 0 .225-.04.318-.119s.181-.221.265-.424c.053 0 .079.02.079.06-.071.177-.163.32-.278.43a.57.57 0 0 1-.43.152.4.4 0 0 1-.252-.086 2.005 2.005 0 0 1-.444.516c-.168.137-.342.205-.523.205s-.316-.064-.404-.192a.87.87 0 0 1-.126-.477c0-.119.015-.243.046-.371a.21.21 0 0 1-.113.033c-.071 0-.126-.015-.166-.046s-.086-.046-.139-.046a.227.227 0 0 0-.093.026.314.314 0 0 0-.099.119zm2.165-.51a1.407 1.407 0 0 0 .027-.258.52.52 0 0 0-.066-.278.203.203 0 0 0-.192-.113c-.137 0-.28.082-.43.245a2.264 2.264 0 0 0-.384.636 2.65 2.65 0 0 0-.132.391 1.32 1.32 0 0 0-.046.331c0 .11.02.199.06.265s.102.099.185.099a.48.48 0 0 0 .305-.126 1.97 1.97 0 0 0 .457-.583 1.183 1.183 0 0 1-.126-.285 1.183 1.183 0 0 1-.013-.146c0-.084.022-.148.066-.192s.088-.066.132-.066a.2.2 0 0 1 .159.079zm1.341 1.489c-.243 0-.424-.064-.543-.192-.115-.128-.172-.3-.172-.516 0-.102.02-.218.06-.351s.093-.267.159-.404.139-.258.218-.364c.128-.172.269-.305.424-.397a.874.874 0 0 1 .47-.146c.168 0 .287.038.358.113a.335.335 0 0 1 .113.252.489.489 0 0 1-.066.252.64.64 0 0 1-.152.172c-.053.044-.099.066-.139.066a.127.127 0 0 1-.093-.04c.035-.044.073-.097.113-.159s.068-.121.086-.179a.49.49 0 0 0 .026-.159c0-.115-.053-.172-.159-.172a.577.577 0 0 0-.377.159c-.119.106-.23.243-.331.41a2.636 2.636 0 0 0-.238.523 1.686 1.686 0 0 0-.086.503c0 .141.029.258.086.351.062.093.161.139.298.139a.72.72 0 0 0 .477-.172c.137-.119.258-.267.364-.444.106-.181.199-.364.278-.55.018 0 .035.004.053.013.018.004.026.02.026.046-.088.221-.192.426-.311.616s-.256.342-.41.457a.846.846 0 0 1-.53.172z"/></symbol><symbol id="icon-menu" viewBox="0 0 24 24"><path d="M3 13h18a1 1 0 0 0 0-2H3a1 1 0 0 0 0 2zm0-6h18a1 1 0 0 0 0-2H3a1 1 0 0 0 0 2zm0 12h18a1 1 0 0 0 0-2H3a1 1 0 0 0 0 2z"/></symbol><symbol id="icon-done" viewBox="0 0 24 24"><path d="M9 16.219 19.594 5.578 21 6.984l-12 12-5.578-5.578L4.781 12z"/></symbol><symbol id="icon-award" viewBox="0 0 24 24"><path d="m14.986 15.424.75 5.652-3.221-1.933a1 1 0 0 0-1.029 0l-3.221 1.933.751-5.651c.921.371 1.929.575 2.984.575s2.063-.205 2.986-.576zm.346-2.433a.986.986 0 0 0-.163.105A5.972 5.972 0 0 1 12 14c-1.657 0-3.156-.67-4.243-1.757S6 9.657 6 8s.67-3.156 1.757-4.243S10.343 2 12 2s3.156.67 4.243 1.757S18 6.343 18 8s-.67 3.156-1.757 4.243a6.004 6.004 0 0 1-.911.748zM7.14 14.355l-1.131 8.513a1 1 0 0 0 1.506.989L12 21.166l4.486 2.691a1 1 0 0 0 1.506-.989l-1.13-8.515A7.977 7.977 0 0 0 20 8c0-2.209-.897-4.21-2.343-5.657S14.209 0 12 0 7.79.897 6.343 2.343 4 5.791 4 8a7.981 7.981 0 0 0 3.139 6.355z"/></symbol><symbol id="icon-bell" viewBox="0 0 24 24"><path d="M17 8c0 4.011.947 6.52 1.851 8H5.149C6.053 14.52 7 12.011 7 8c0-1.381.559-2.63 1.464-3.536S10.619 3 12 3s2.63.559 3.536 1.464S17 6.619 17 8zm2 0c0-1.933-.785-3.684-2.05-4.95S13.933 1 12 1s-3.684.785-4.95 2.05S5 6.067 5 8c0 6.127-2.393 8.047-2.563 8.174A1 1 0 0 0 3 18h18a1 1 0 0 0 .571-1.821C21.395 16.049 19 14.129 19 8zm-6.135 12.498a.998.998 0 0 1-1.726.007 1 1 0 1 0-1.737.991c.25.439.623.823 1.093 1.096.716.416 1.535.501 2.276.304s1.409-.678 1.824-1.394a1 1 0 0 0-1.73-1.004z"/></symbol><symbol id="icon-briefcase" viewBox="0 0 24 24"><path d="M9 6V5c0-.276.111-.525.293-.707S9.724 4 10 4h4c.276 0 .525.111.707.293S15 4.724 15 5v1zm0 14V8h6v12zM7 8v12H4c-.276 0-.525-.111-.707-.293S3 19.276 3 19V9c0-.276.111-.525.293-.707S3.724 8 4 8zm10-2V5a2.997 2.997 0 0 0-3-3h-4a2.997 2.997 0 0 0-3 3v1H4a2.997 2.997 0 0 0-3 3v10a2.997 2.997 0 0 0 3 3h16a2.997 2.997 0 0 0 3-3V9a2.997 2.997 0 0 0-3-3zm0 14V8h3c.276 0 .525.111.707.293S21 8.724 21 9v10c0 .276-.111.525-.293.707S20.276 20 20 20z"/></symbol>
<symbol id="icon-close" viewBox="0 0 32 32">
<path stroke-linejoin="round" stroke-linecap="round" stroke-miterlimit="4" stroke-width="2.6667" d="M24 8l-16 16"></path>
<path stroke-linejoin="round" stroke-linecap="round" stroke-miterlimit="4" stroke-width="2.6667" d="M8 8l16 16"></path>
</symbol><symbol id="icon-clock" viewBox="0 0 24 24"><path d="M23 12c0-3.037-1.232-5.789-3.222-7.778S15.037 1 12 1 6.211 2.232 4.222 4.222 1 8.963 1 12s1.232 5.789 3.222 7.778S8.963 23 12 23s5.789-1.232 7.778-3.222S23 15.037 23 12zm-2 0c0 2.486-1.006 4.734-2.636 6.364S14.486 21 12 21s-4.734-1.006-6.364-2.636S3 14.486 3 12s1.006-4.734 2.636-6.364S9.514 3 12 3s4.734 1.006 6.364 2.636S21 9.514 21 12zM11 6v6a1 1 0 0 0 .553.894l4 2a1 1 0 0 0 .895-1.789L13 11.382V6a1 1 0 0 0-2 0z"/></symbol><symbol id="icon-lock" viewBox="0 0 24 24"><path d="M5 12h14c.276 0 .525.111.707.293S20 12.724 20 13v7c0 .276-.111.525-.293.707S19.276 21 19 21H5c-.276 0-.525-.111-.707-.293S4 20.276 4 20v-7c0-.276.111-.525.293-.707S4.724 12 5 12zm13-2V7c0-1.657-.673-3.158-1.757-4.243S13.657 1 12 1s-3.158.673-4.243 1.757S6 5.343 6 7v3H5a2.997 2.997 0 0 0-3 3v7a2.997 2.997 0 0 0 3 3h14a2.997 2.997 0 0 0 3-3v-7a2.997 2.997 0 0 0-3-3zM8 10V7c0-1.105.447-2.103 1.172-2.828S10.895 3 12 3s2.103.447 2.828 1.172S16 5.895 16 7v3z"/></symbol><symbol id="icon-mail" viewBox="0 0 24 24"><path d="m3 7.921 8.427 5.899c.34.235.795.246 1.147 0L21 7.921V18c0 .272-.11.521-.295.705S20.272 19 20 19H4c-.272 0-.521-.11-.705-.295S3 18.272 3 18zM1 5.983V18c0 .828.34 1.579.88 2.12S3.172 21 4 21h16c.828 0 1.579-.34 2.12-.88S23 18.828 23 18V5.982a2.995 2.995 0 0 0-.88-2.102A2.998 2.998 0 0 0 20 3H4c-.828 0-1.579.34-2.12.88A2.995 2.995 0 0 0 1 5.983zm19.894-.429L12 11.779 3.106 5.554a.999.999 0 0 1 .188-.259A.994.994 0 0 1 4 5h16a1.016 1.016 0 0 1 .893.554z"/></symbol><symbol id="icon-map-pin" viewBox="0 0 24 24"><path d="M22 10c0-2.761-1.12-5.263-2.929-7.071S14.761 0 12 0 6.737 1.12 4.929 2.929 2 7.239 2 10c0 .569.053 1.128.15 1.676.274 1.548.899 3.004 1.682 4.32 2.732 4.591 7.613 7.836 7.613 7.836.331.217.765.229 1.109 0 0 0 4.882-3.245 7.613-7.836.783-1.316 1.408-2.772 1.682-4.32A9.506 9.506 0 0 0 22 10zm-2 0c0 .444-.041.887-.119 1.328-.221 1.25-.737 2.478-1.432 3.646-1.912 3.214-5.036 5.747-6.369 6.74-1.398-.916-4.588-3.477-6.53-6.74-.695-1.168-1.211-2.396-1.432-3.646A7.713 7.713 0 0 1 4 10c0-2.209.894-4.208 2.343-5.657S9.791 2 12 2s4.208.894 5.657 2.343S20 7.791 20 10zm-4 0c0-1.104-.449-2.106-1.172-2.828a3.994 3.994 0 0 0-5.656 0 3.994 3.994 0 0 0 0 5.656 3.994 3.994 0 0 0 5.656 0A3.994 3.994 0 0 0 16 10zm-2 0c0 .553-.223 1.051-.586 1.414S12.553 12 12 12s-1.051-.223-1.414-.586S10 10.553 10 10s.223-1.051.586-1.414S11.447 8 12 8s1.051.223 1.414.586S14 9.447 14 10z"/></symbol><symbol id="icon-phone" viewBox="0 0 24 24"><path d="M23 16.92a3.006 3.006 0 0 0-2.598-3.023c-.8-.098-1.695-.314-2.586-.646a3.045 3.045 0 0 0-1.344-.174 2.987 2.987 0 0 0-1.819.855l-.72.72a14.84 14.84 0 0 1-4.583-4.589l.726-.726c.322-.33.563-.726.707-1.156a2.992 2.992 0 0 0-.039-2.011 11.591 11.591 0 0 1-.644-2.595 3.02 3.02 0 0 0-.963-1.804A2.982 2.982 0 0 0 7.11 1H4.114a2.998 2.998 0 0 0-2.989 3.277c.3 3.076 1.365 6.243 3.216 9.102 1.502 2.413 3.648 4.623 6.298 6.306 2.568 1.697 5.684 2.862 9.086 3.231a2.994 2.994 0 0 0 2.406-.874c.54-.544.873-1.297.87-2.121zm-2 0v3a.997.997 0 0 1-.996 1.008c-3.149-.336-5.961-1.391-8.263-2.912-2.428-1.543-4.359-3.537-5.702-5.694-1.697-2.62-2.655-5.481-2.924-8.238-.024-.268.064-.526.229-.724s.403-.33.678-.355L7.11 3a.995.995 0 0 1 .687.256c.17.154.288.366.323.608.142 1.072.408 2.117.757 3.025.081.216.08.447.01.658a1.049 1.049 0 0 1-.242.395L7.383 9.203a1.001 1.001 0 0 0-.162 1.201c1.584 2.785 3.839 4.957 6.381 6.378.397.222.882.144 1.195-.166l1.27-1.27a.984.984 0 0 1 .598-.279c.152-.015.31.005.459.06 1.022.381 2.07.636 3.034.754a.976.976 0 0 1 .615.355c.147.181.231.412.226.682z"/></symbol><symbol id="icon-star" viewBox="0 0 24 24"><path d="M12.897 1.557a1 1 0 0 0-1.793 0L8.246 7.346l-6.391.935a1 1 0 0 0-.553 1.705l4.623 4.503-1.091 6.362a1 1 0 0 0 1.452 1.054L12 18.9l5.715 3.005a1 1 0 0 0 1.451-1.054l-1.091-6.362 4.623-4.503a1 1 0 0 0-.553-1.706l-6.39-.934zM12 4.259l2.193 4.444c.151.305.436.499.752.547l4.906.717-3.549 3.457a1 1 0 0 0-.288.885l.837 4.883-4.386-2.307a1.001 1.001 0 0 0-.931 0l-4.386 2.307.837-4.883a.996.996 0 0 0-.288-.885L4.148 9.967l4.907-.718a1 1 0 0 0 .752-.546z"/></symbol><symbol id="icon-user-check" viewBox="0 0 24 24"><path d="M17 21v-2c0-1.38-.561-2.632-1.464-3.536S13.38 14 12 14H5c-1.38 0-2.632.561-3.536 1.464S0 17.62 0 19v2a1 1 0 0 0 2 0v-2c0-.829.335-1.577.879-2.121S4.171 16 5 16h7c.829 0 1.577.335 2.121.879S15 18.171 15 19v2a1 1 0 0 0 2 0zM13.5 7c0-1.38-.561-2.632-1.464-3.536S9.88 2 8.5 2s-2.632.561-3.536 1.464S3.5 5.62 3.5 7s.561 2.632 1.464 3.536S7.12 12 8.5 12s2.632-.561 3.536-1.464S13.5 8.38 13.5 7zm-2 0c0 .829-.335 1.577-.879 2.121S9.329 10 8.5 10s-1.577-.335-2.121-.879S5.5 7.829 5.5 7s.335-1.577.879-2.121S7.671 4 8.5 4s1.577.335 2.121.879S11.5 6.171 11.5 7zm4.793 4.707 2 2a.999.999 0 0 0 1.414 0l4-4a.999.999 0 1 0-1.414-1.414L19 11.586l-1.293-1.293a.999.999 0 1 0-1.414 1.414z"/></symbol><symbol id="icon-profile-male" viewBox="0 0 36 32"><path d="M.5 31.983a.503.503 0 0 0 .612-.354c1.03-3.843 5.216-4.839 7.718-5.435.627-.149 1.122-.267 1.444-.406 2.85-1.237 3.779-3.227 4.057-4.679a.5.5 0 0 0-.165-.473c-1.484-1.281-2.736-3.204-3.526-5.416a.492.492 0 0 0-.103-.171c-1.045-1.136-1.645-2.337-1.645-3.294 0-.559.211-.934.686-1.217a.5.5 0 0 0 .243-.408C10.042 5.036 13.67 1.026 18.12 1l.107.007c4.472.062 8.077 4.158 8.206 9.324a.498.498 0 0 0 .178.369c.313.265.459.601.459 1.057 0 .801-.427 1.786-1.201 2.772a.522.522 0 0 0-.084.158c-.8 2.536-2.236 4.775-3.938 6.145a.502.502 0 0 0-.178.483c.278 1.451 1.207 3.44 4.057 4.679.337.146.86.26 1.523.403 2.477.536 6.622 1.435 7.639 5.232a.5.5 0 0 0 .966-.26c-1.175-4.387-5.871-5.404-8.393-5.95-.585-.127-1.09-.236-1.336-.344-1.86-.808-3.006-2.039-3.411-3.665 1.727-1.483 3.172-3.771 3.998-6.337.877-1.14 1.359-2.314 1.359-3.317 0-.669-.216-1.227-.644-1.663C27.189 4.489 23.19.076 18.227.005l-.149-.002c-4.873.026-8.889 4.323-9.24 9.83-.626.46-.944 1.105-.944 1.924 0 1.183.669 2.598 1.84 3.896.809 2.223 2.063 4.176 3.556 5.543-.403 1.632-1.55 2.867-3.414 3.676-.241.105-.721.22-1.277.352-2.541.604-7.269 1.729-8.453 6.147a.5.5 0 0 0 .354.612z"/></symbol><symbol id="icon-profile-female" viewBox="0 0 36 32"><path d="M22.22 20.726a.485.485 0 0 0-.425.155.499.499 0 0 0-.126.435c.276 1.45 1.205 3.44 4.057 4.679.338.146.86.26 1.522.403 2.478.536 6.622 1.434 7.64 5.232a.5.5 0 0 0 .967-.26c-1.177-4.387-5.872-5.404-8.395-5.95-.584-.127-1.089-.236-1.336-.344-1.714-.744-2.821-1.848-3.301-3.286 4.762.354 6.918-1.543 7.013-1.629a.5.5 0 0 0-.088-.805C27 17.786 27 12.361 27 10.318 27 4.605 23.152.076 18.219.005a5.875 5.875 0 0 0-.141-.003h-.001C13.072.03 9 4.564 9 10.11c0 2.043 0 7.469-2.748 9.038a.503.503 0 0 0-.06.829c.138.107 3.188 2.441 6.941 1.732-.502 1.378-1.594 2.438-3.258 3.161-.241.105-.721.22-1.277.352-2.54.604-7.269 1.729-8.453 6.147a.5.5 0 0 0 .967.259c1.029-3.844 5.217-4.839 7.718-5.435.627-.149 1.122-.267 1.444-.406 2.852-1.239 3.78-3.229 4.057-4.679a.497.497 0 0 0-.159-.467.497.497 0 0 0-.482-.104c-2.707.852-5.208-.32-6.301-.97C10 17.381 10 12.35 10 10.11c0-4.997 3.626-9.083 8.12-9.11l.106.006C22.658 1.069 26 5.072 26 10.318c0 2.241 0 7.283 2.622 9.469-.903.516-2.962 1.351-6.402.939z"/></symbol><symbol id="icon-arrow-right" viewBox="0 0 24 24"><path d="M11.293 5.707 16.586 11H5a1 1 0 0 0 0 2h11.586l-5.293 5.293a.999.999 0 1 0 1.414 1.414l7-7a1.006 1.006 0 0 0 0-1.414l-7-7a.999.999 0 1 0-1.414 1.414z"/></symbol></defs></svg>